<mxfile host="65bd71144e">
    <diagram id="FpIZsLjUA64x84-bzxFU" name="Page-1">
        <mxGraphModel dx="262" dy="167" grid="1" gridSize="10" guides="1" tooltips="1" connect="1" arrows="1" fold="1" page="1" pageScale="1" pageWidth="827" pageHeight="1169" math="0" shadow="0">
            <root>
                <mxCell id="0"/>
                <mxCell id="1" parent="0"/>
                <mxCell id="70" value="" style="group;fontFamily=Times New Roman;" parent="1" vertex="1" connectable="0">
                    <mxGeometry x="70" y="230" width="522.5" height="780" as="geometry"/>
                </mxCell>
                <mxCell id="39" value="" style="group;fontFamily=Times New Roman;" parent="70" vertex="1" connectable="0">
                    <mxGeometry y="360" width="522.5" height="420" as="geometry"/>
                </mxCell>
                <mxCell id="2" value="interrupt pins" style="rounded=0;whiteSpace=wrap;html=1;fontFamily=Times New Roman;fontSize=16;" parent="39" vertex="1">
                    <mxGeometry x="12.5" y="390" width="260" height="30" as="geometry"/>
                </mxCell>
                <mxCell id="6" value="exception_handlers[EXCODE]" style="rounded=0;whiteSpace=wrap;html=1;fontFamily=Times New Roman;fontSize=16;" parent="39" vertex="1">
                    <mxGeometry y="320" width="285" height="30" as="geometry"/>
                </mxCell>
                <mxCell id="7" style="edgeStyle=none;html=1;exitX=0.5;exitY=0;exitDx=0;exitDy=0;entryX=0.5;entryY=1;entryDx=0;entryDy=0;fontFamily=Times New Roman;fontSize=16;" parent="39" source="2" target="6" edge="1">
                    <mxGeometry relative="1" as="geometry"/>
                </mxCell>
                <mxCell id="10" value="do_vi" style="rounded=0;whiteSpace=wrap;html=1;fontFamily=Times New Roman;fontSize=16;" parent="39" vertex="1">
                    <mxGeometry x="96.25" y="250" width="92.5" height="30" as="geometry"/>
                </mxCell>
                <mxCell id="11" style="edgeStyle=none;html=1;exitX=0.5;exitY=0;exitDx=0;exitDy=0;entryX=0.5;entryY=1;entryDx=0;entryDy=0;fontFamily=Times New Roman;fontSize=16;" parent="39" source="6" target="10" edge="1">
                    <mxGeometry relative="1" as="geometry"/>
                </mxCell>
                <mxCell id="12" value="hardware jump" style="text;html=1;align=center;verticalAlign=middle;resizable=0;points=[];autosize=1;strokeColor=none;fillColor=none;fontSize=16;fontFamily=Times New Roman;" parent="39" vertex="1">
                    <mxGeometry x="152.5" y="360" width="120" height="30" as="geometry"/>
                </mxCell>
                <mxCell id="13" value="hwirq = 3" style="text;html=1;align=center;verticalAlign=middle;resizable=0;points=[];autosize=1;strokeColor=none;fillColor=none;fontSize=16;fontFamily=Times New Roman;" parent="39" vertex="1">
                    <mxGeometry x="147.5" y="290" width="90" height="30" as="geometry"/>
                </mxCell>
                <mxCell id="14" value="plat_irq_dispatch" style="rounded=0;whiteSpace=wrap;html=1;fontFamily=Times New Roman;fontSize=16;" parent="39" vertex="1">
                    <mxGeometry x="48.75" y="180" width="187.5" height="30" as="geometry"/>
                </mxCell>
                <mxCell id="15" style="edgeStyle=none;html=1;exitX=0.5;exitY=0;exitDx=0;exitDy=0;entryX=0.5;entryY=1;entryDx=0;entryDy=0;fontFamily=Times New Roman;fontSize=16;" parent="39" source="10" target="14" edge="1">
                    <mxGeometry relative="1" as="geometry"/>
                </mxCell>
                <mxCell id="24" value="hwirq = 3" style="text;html=1;align=center;verticalAlign=middle;resizable=0;points=[];autosize=1;strokeColor=none;fillColor=none;fontSize=16;fontFamily=Times New Roman;" parent="39" vertex="1">
                    <mxGeometry x="147.5" y="220" width="90" height="30" as="geometry"/>
                </mxCell>
                <mxCell id="25" value="CPU domain lookup" style="rounded=0;whiteSpace=wrap;html=1;fontFamily=Times New Roman;fontSize=16;" parent="39" vertex="1">
                    <mxGeometry x="297.5" y="175" width="120" height="40" as="geometry"/>
                </mxCell>
                <mxCell id="26" value="" style="endArrow=classic;html=1;fontFamily=Times New Roman;fontSize=16;entryX=0.5;entryY=1;entryDx=0;entryDy=0;" parent="39" target="25" edge="1">
                    <mxGeometry width="50" height="50" relative="1" as="geometry">
                        <mxPoint x="357.5" y="240" as="sourcePoint"/>
                        <mxPoint x="347.5" y="240" as="targetPoint"/>
                    </mxGeometry>
                </mxCell>
                <mxCell id="27" value="hwirq = 3" style="text;html=1;align=center;verticalAlign=middle;resizable=0;points=[];autosize=1;strokeColor=none;fillColor=none;fontSize=16;fontFamily=Times New Roman;" parent="39" vertex="1">
                    <mxGeometry x="312.5" y="240" width="90" height="30" as="geometry"/>
                </mxCell>
                <mxCell id="28" value="virq = 53" style="text;html=1;align=center;verticalAlign=middle;resizable=0;points=[];autosize=1;strokeColor=none;fillColor=none;fontSize=16;fontFamily=Times New Roman;" parent="39" vertex="1">
                    <mxGeometry x="317.5" y="120" width="80" height="30" as="geometry"/>
                </mxCell>
                <mxCell id="29" value="" style="endArrow=classic;html=1;fontFamily=Times New Roman;fontSize=16;exitX=0.5;exitY=0;exitDx=0;exitDy=0;entryX=0.5;entryY=1;entryDx=0;entryDy=0;entryPerimeter=0;" parent="39" source="25" target="28" edge="1">
                    <mxGeometry width="50" height="50" relative="1" as="geometry">
                        <mxPoint x="267.5" y="180" as="sourcePoint"/>
                        <mxPoint x="317.5" y="130" as="targetPoint"/>
                    </mxGeometry>
                </mxCell>
                <mxCell id="31" value="" style="endArrow=none;html=1;fontFamily=Times New Roman;fontSize=16;exitX=1;exitY=0;exitDx=0;exitDy=0;entryX=0.045;entryY=0;entryDx=0;entryDy=0;entryPerimeter=0;" parent="39" source="14" target="28" edge="1">
                    <mxGeometry width="50" height="50" relative="1" as="geometry">
                        <mxPoint x="227.5" y="180" as="sourcePoint"/>
                        <mxPoint x="277.5" y="130" as="targetPoint"/>
                    </mxGeometry>
                </mxCell>
                <mxCell id="32" value="" style="endArrow=none;html=1;fontFamily=Times New Roman;fontSize=16;entryX=1;entryY=1;entryDx=0;entryDy=0;exitX=-0.03;exitY=1.09;exitDx=0;exitDy=0;exitPerimeter=0;" parent="39" source="27" target="14" edge="1">
                    <mxGeometry width="50" height="50" relative="1" as="geometry">
                        <mxPoint x="227.5" y="290" as="sourcePoint"/>
                        <mxPoint x="277.5" y="240" as="targetPoint"/>
                    </mxGeometry>
                </mxCell>
                <mxCell id="33" value="extioi_irq_dispatch" style="rounded=0;whiteSpace=wrap;html=1;fontFamily=Times New Roman;fontSize=16;" parent="39" vertex="1">
                    <mxGeometry x="40" width="205" height="30" as="geometry"/>
                </mxCell>
                <mxCell id="36" value="" style="edgeStyle=none;html=1;exitX=0.5;exitY=0;exitDx=0;exitDy=0;entryX=0.5;entryY=1;entryDx=0;entryDy=0;fontFamily=Times New Roman;fontSize=16;endArrow=none;" parent="39" source="14" target="35" edge="1">
                    <mxGeometry relative="1" as="geometry">
                        <mxPoint x="142.5" y="180" as="sourcePoint"/>
                        <mxPoint x="142.5" y="-70" as="targetPoint"/>
                    </mxGeometry>
                </mxCell>
                <mxCell id="35" value="virq = 53" style="text;html=1;align=center;verticalAlign=middle;resizable=0;points=[];autosize=1;strokeColor=none;fillColor=none;fontSize=16;fontFamily=Times New Roman;" parent="39" vertex="1">
                    <mxGeometry x="102.5" y="120" width="80" height="30" as="geometry"/>
                </mxCell>
                <mxCell id="38" value="" style="edgeStyle=none;html=1;exitX=0.5;exitY=0;exitDx=0;exitDy=0;entryX=0.5;entryY=1;entryDx=0;entryDy=0;fontFamily=Times New Roman;fontSize=16;startArrow=none;endArrow=none;" parent="39" source="35" target="37" edge="1">
                    <mxGeometry relative="1" as="geometry">
                        <mxPoint x="142.5" y="110" as="sourcePoint"/>
                        <mxPoint x="142.5" y="-70" as="targetPoint"/>
                    </mxGeometry>
                </mxCell>
                <mxCell id="37" value="desc-&amp;gt;handle_irq" style="text;html=1;align=center;verticalAlign=middle;resizable=0;points=[];autosize=1;strokeColor=none;fillColor=none;fontSize=16;fontFamily=Times New Roman;" parent="39" vertex="1">
                    <mxGeometry x="77.5" y="60" width="130" height="30" as="geometry"/>
                </mxCell>
                <mxCell id="34" style="edgeStyle=none;html=1;exitX=0.5;exitY=0;exitDx=0;exitDy=0;entryX=0.5;entryY=1;entryDx=0;entryDy=0;fontFamily=Times New Roman;fontSize=16;startArrow=none;" parent="39" source="37" target="33" edge="1">
                    <mxGeometry relative="1" as="geometry"/>
                </mxCell>
                <mxCell id="40" value="extioi domain lookup" style="rounded=0;whiteSpace=wrap;html=1;fontFamily=Times New Roman;fontSize=16;" parent="39" vertex="1">
                    <mxGeometry x="346.25" y="-5" width="132.5" height="40" as="geometry"/>
                </mxCell>
                <mxCell id="41" value="" style="endArrow=classic;html=1;fontFamily=Times New Roman;fontSize=16;entryX=0.5;entryY=1;entryDx=0;entryDy=0;" parent="39" target="40" edge="1">
                    <mxGeometry width="50" height="50" relative="1" as="geometry">
                        <mxPoint x="412.5" y="60" as="sourcePoint"/>
                        <mxPoint x="20" y="-520" as="targetPoint"/>
                    </mxGeometry>
                </mxCell>
                <mxCell id="42" value="hwirq = ffs(pending)" style="text;html=1;align=center;verticalAlign=middle;resizable=0;points=[];autosize=1;strokeColor=none;fillColor=none;fontSize=16;fontFamily=Times New Roman;" parent="39" vertex="1">
                    <mxGeometry x="332.5" y="60" width="160" height="30" as="geometry"/>
                </mxCell>
                <mxCell id="43" value="virq = 16" style="text;html=1;align=center;verticalAlign=middle;resizable=0;points=[];autosize=1;strokeColor=none;fillColor=none;fontSize=16;fontFamily=Times New Roman;" parent="39" vertex="1">
                    <mxGeometry x="372.5" y="-60" width="80" height="30" as="geometry"/>
                </mxCell>
                <mxCell id="44" value="" style="endArrow=classic;html=1;fontFamily=Times New Roman;fontSize=16;exitX=0.5;exitY=0;exitDx=0;exitDy=0;entryX=0.5;entryY=1;entryDx=0;entryDy=0;entryPerimeter=0;" parent="39" source="40" target="43" edge="1">
                    <mxGeometry width="50" height="50" relative="1" as="geometry">
                        <mxPoint x="-60" y="-580" as="sourcePoint"/>
                        <mxPoint x="-10" y="-630" as="targetPoint"/>
                    </mxGeometry>
                </mxCell>
                <mxCell id="45" value="" style="endArrow=none;html=1;fontFamily=Times New Roman;fontSize=16;entryX=1;entryY=1;entryDx=0;entryDy=0;exitX=-0.008;exitY=1.062;exitDx=0;exitDy=0;exitPerimeter=0;" parent="39" source="42" target="33" edge="1">
                    <mxGeometry width="50" height="50" relative="1" as="geometry">
                        <mxPoint x="217.5" y="120" as="sourcePoint"/>
                        <mxPoint x="267.5" y="70" as="targetPoint"/>
                    </mxGeometry>
                </mxCell>
                <mxCell id="46" value="" style="endArrow=none;html=1;fontFamily=Times New Roman;fontSize=16;exitX=1;exitY=0;exitDx=0;exitDy=0;entryX=-0.013;entryY=-0.106;entryDx=0;entryDy=0;entryPerimeter=0;" parent="39" source="33" target="43" edge="1">
                    <mxGeometry width="50" height="50" relative="1" as="geometry">
                        <mxPoint x="257.5" y="-20" as="sourcePoint"/>
                        <mxPoint x="307.5" y="-70" as="targetPoint"/>
                    </mxGeometry>
                </mxCell>
                <mxCell id="99" value="" style="endArrow=none;dashed=1;html=1;dashPattern=1 3;strokeWidth=2;fontFamily=Times New Roman;fontSize=16;" parent="39" edge="1">
                    <mxGeometry width="50" height="50" relative="1" as="geometry">
                        <mxPoint y="112" as="sourcePoint"/>
                        <mxPoint x="680" y="112" as="targetPoint"/>
                    </mxGeometry>
                </mxCell>
                <mxCell id="51" value="pch_handle_irq" style="rounded=0;whiteSpace=wrap;html=1;fontFamily=Times New Roman;fontSize=16;" parent="70" vertex="1">
                    <mxGeometry x="56.25" y="180" width="172.5" height="30" as="geometry"/>
                </mxCell>
                <mxCell id="52" style="edgeStyle=none;html=1;exitX=0.5;exitY=0;exitDx=0;exitDy=0;entryX=0.5;entryY=1;entryDx=0;entryDy=0;fontFamily=Times New Roman;fontSize=16;startArrow=none;" parent="70" source="55" target="51" edge="1">
                    <mxGeometry relative="1" as="geometry"/>
                </mxCell>
                <mxCell id="54" value="" style="edgeStyle=none;html=1;exitX=0.5;exitY=0;exitDx=0;exitDy=0;entryX=0.5;entryY=1;entryDx=0;entryDy=0;fontFamily=Times New Roman;fontSize=16;endArrow=none;" parent="70" source="33" target="53" edge="1">
                    <mxGeometry relative="1" as="geometry">
                        <mxPoint x="142.5000000000001" y="360" as="sourcePoint"/>
                        <mxPoint x="142.5000000000001" y="190.0000000000001" as="targetPoint"/>
                    </mxGeometry>
                </mxCell>
                <mxCell id="53" value="virq = 16" style="text;html=1;align=center;verticalAlign=middle;resizable=0;points=[];autosize=1;strokeColor=none;fillColor=none;fontSize=16;fontFamily=Times New Roman;" parent="70" vertex="1">
                    <mxGeometry x="102.5" y="300" width="80" height="30" as="geometry"/>
                </mxCell>
                <mxCell id="56" value="" style="edgeStyle=none;html=1;exitX=0.5;exitY=0;exitDx=0;exitDy=0;entryX=0.5;entryY=1;entryDx=0;entryDy=0;fontFamily=Times New Roman;fontSize=16;startArrow=none;endArrow=none;" parent="70" source="53" target="55" edge="1">
                    <mxGeometry relative="1" as="geometry">
                        <mxPoint x="142.5000000000001" y="300.0000000000001" as="sourcePoint"/>
                        <mxPoint x="142.5000000000001" y="190.0000000000001" as="targetPoint"/>
                    </mxGeometry>
                </mxCell>
                <mxCell id="55" value="desc-&amp;gt;handle_irq" style="text;html=1;align=center;verticalAlign=middle;resizable=0;points=[];autosize=1;strokeColor=none;fillColor=none;fontSize=16;fontFamily=Times New Roman;" parent="70" vertex="1">
                    <mxGeometry x="77.5" y="240" width="130" height="30" as="geometry"/>
                </mxCell>
                <mxCell id="57" value="pch-pic domain lookup" style="rounded=0;whiteSpace=wrap;html=1;fontFamily=Times New Roman;fontSize=16;" parent="70" vertex="1">
                    <mxGeometry x="346.25" y="175" width="132.5" height="40" as="geometry"/>
                </mxCell>
                <mxCell id="58" value="" style="endArrow=classic;html=1;fontFamily=Times New Roman;fontSize=16;entryX=0.5;entryY=1;entryDx=0;entryDy=0;" parent="70" target="57" edge="1">
                    <mxGeometry width="50" height="50" relative="1" as="geometry">
                        <mxPoint x="412.5" y="240" as="sourcePoint"/>
                        <mxPoint x="-50" y="-930" as="targetPoint"/>
                    </mxGeometry>
                </mxCell>
                <mxCell id="59" value="hwirq = ffs(pending)" style="text;html=1;align=center;verticalAlign=middle;resizable=0;points=[];autosize=1;strokeColor=none;fillColor=none;fontSize=16;fontFamily=Times New Roman;" parent="70" vertex="1">
                    <mxGeometry x="332.5" y="240" width="160" height="30" as="geometry"/>
                </mxCell>
                <mxCell id="60" value="virq" style="text;html=1;align=center;verticalAlign=middle;resizable=0;points=[];autosize=1;strokeColor=none;fillColor=none;fontSize=16;fontFamily=Times New Roman;" parent="70" vertex="1">
                    <mxGeometry x="387.5" y="120" width="50" height="30" as="geometry"/>
                </mxCell>
                <mxCell id="61" value="" style="endArrow=classic;html=1;fontFamily=Times New Roman;fontSize=16;exitX=0.5;exitY=0;exitDx=0;exitDy=0;entryX=0.5;entryY=1;entryDx=0;entryDy=0;entryPerimeter=0;" parent="70" source="57" target="60" edge="1">
                    <mxGeometry width="50" height="50" relative="1" as="geometry">
                        <mxPoint x="-130" y="-990" as="sourcePoint"/>
                        <mxPoint x="-80" y="-1040" as="targetPoint"/>
                    </mxGeometry>
                </mxCell>
                <mxCell id="62" value="" style="endArrow=none;html=1;fontFamily=Times New Roman;fontSize=16;entryX=1;entryY=1;entryDx=0;entryDy=0;exitX=-0.019;exitY=1.027;exitDx=0;exitDy=0;exitPerimeter=0;" parent="70" source="59" target="51" edge="1">
                    <mxGeometry width="50" height="50" relative="1" as="geometry">
                        <mxPoint x="260" y="310" as="sourcePoint"/>
                        <mxPoint x="310" y="260" as="targetPoint"/>
                    </mxGeometry>
                </mxCell>
                <mxCell id="63" value="" style="endArrow=none;html=1;fontFamily=Times New Roman;fontSize=16;exitX=1;exitY=0;exitDx=0;exitDy=0;entryX=-0.015;entryY=-0.147;entryDx=0;entryDy=0;entryPerimeter=0;" parent="70" source="51" target="60" edge="1">
                    <mxGeometry width="50" height="50" relative="1" as="geometry">
                        <mxPoint x="270" y="110" as="sourcePoint"/>
                        <mxPoint x="320" y="60" as="targetPoint"/>
                    </mxGeometry>
                </mxCell>
                <mxCell id="66" value="" style="endArrow=none;html=1;fontFamily=Times New Roman;fontSize=16;exitX=0.5;exitY=0;exitDx=0;exitDy=0;" parent="70" source="51" target="65" edge="1">
                    <mxGeometry width="50" height="50" relative="1" as="geometry">
                        <mxPoint x="142.5" y="180" as="sourcePoint"/>
                        <mxPoint x="143" y="-30" as="targetPoint"/>
                    </mxGeometry>
                </mxCell>
                <mxCell id="65" value="virq" style="text;html=1;align=center;verticalAlign=middle;resizable=0;points=[];autosize=1;strokeColor=none;fillColor=none;fontSize=16;fontFamily=Times New Roman;" parent="70" vertex="1">
                    <mxGeometry x="117.5" y="120" width="50" height="30" as="geometry"/>
                </mxCell>
                <mxCell id="68" value="" style="endArrow=none;html=1;fontFamily=Times New Roman;fontSize=16;exitX=0.5;exitY=0;exitDx=0;exitDy=0;startArrow=none;" parent="70" source="65" target="67" edge="1">
                    <mxGeometry width="50" height="50" relative="1" as="geometry">
                        <mxPoint x="142.5" y="120" as="sourcePoint"/>
                        <mxPoint x="143" y="-30" as="targetPoint"/>
                    </mxGeometry>
                </mxCell>
                <mxCell id="67" value="desc-&amp;gt;handle_irq" style="text;html=1;align=center;verticalAlign=middle;resizable=0;points=[];autosize=1;strokeColor=none;fillColor=none;fontSize=16;fontFamily=Times New Roman;" parent="70" vertex="1">
                    <mxGeometry x="77.5" y="60" width="130" height="30" as="geometry"/>
                </mxCell>
                <mxCell id="69" value="specified handler" style="rounded=0;whiteSpace=wrap;html=1;fontFamily=Times New Roman;fontSize=16;" parent="70" vertex="1">
                    <mxGeometry x="53.75" width="177.5" height="30" as="geometry"/>
                </mxCell>
                <mxCell id="64" value="" style="endArrow=classic;html=1;fontFamily=Times New Roman;fontSize=16;exitX=0.5;exitY=0;exitDx=0;exitDy=0;startArrow=none;entryX=0.5;entryY=1;entryDx=0;entryDy=0;" parent="70" source="67" target="69" edge="1">
                    <mxGeometry width="50" height="50" relative="1" as="geometry">
                        <mxPoint x="170" y="110" as="sourcePoint"/>
                        <mxPoint x="143" y="10" as="targetPoint"/>
                    </mxGeometry>
                </mxCell>
                <mxCell id="102" style="edgeStyle=none;html=1;exitX=0.5;exitY=1;exitDx=0;exitDy=0;entryX=0.5;entryY=0;entryDx=0;entryDy=0;fontFamily=Times New Roman;fontSize=16;" parent="1" source="86" target="81" edge="1">
                    <mxGeometry relative="1" as="geometry">
                        <mxPoint x="703.7499999999999" y="472" as="targetPoint"/>
                    </mxGeometry>
                </mxCell>
                <mxCell id="86" value="device" style="rounded=0;whiteSpace=wrap;html=1;fontFamily=Times New Roman;fontSize=16;container=0;" parent="1" vertex="1">
                    <mxGeometry x="640" y="230" width="80" height="30" as="geometry"/>
                </mxCell>
                <mxCell id="79" value="" style="rounded=0;whiteSpace=wrap;html=1;container=0;fontFamily=Times New Roman;" parent="1" vertex="1">
                    <mxGeometry x="741.25" y="680" width="7.5" as="geometry"/>
                </mxCell>
                <mxCell id="91" value="" style="group;fontFamily=Times New Roman;" parent="1" vertex="1" connectable="0">
                    <mxGeometry x="625" y="830" width="110" height="30" as="geometry"/>
                </mxCell>
                <mxCell id="72" value="CPU" style="rounded=0;whiteSpace=wrap;html=1;fontFamily=Times New Roman;fontSize=16;container=0;" parent="91" vertex="1">
                    <mxGeometry width="110" height="30" as="geometry"/>
                </mxCell>
                <mxCell id="92" value="" style="group;fontFamily=Times New Roman;" parent="1" vertex="1" connectable="0">
                    <mxGeometry x="620" y="650" width="120" height="30" as="geometry"/>
                </mxCell>
                <mxCell id="77" value="extioi chip" style="rounded=0;whiteSpace=wrap;html=1;fontSize=16;fontFamily=Times New Roman;container=0;" parent="92" vertex="1">
                    <mxGeometry width="120" height="30" as="geometry"/>
                </mxCell>
                <mxCell id="93" value="" style="group;fontFamily=Times New Roman;" parent="1" vertex="1" connectable="0">
                    <mxGeometry x="614" y="440" width="132" height="60" as="geometry"/>
                </mxCell>
                <mxCell id="98" value="" style="group;fontFamily=Times New Roman;" parent="93" vertex="1" connectable="0">
                    <mxGeometry y="30" width="132" height="30" as="geometry"/>
                </mxCell>
                <mxCell id="81" value="pch-pic chip" style="rounded=0;whiteSpace=wrap;html=1;fontFamily=Times New Roman;fontSize=16;container=0;" parent="98" vertex="1">
                    <mxGeometry width="132" height="30" as="geometry"/>
                </mxCell>
                <mxCell id="97" value="" style="endArrow=none;dashed=1;html=1;fontFamily=Times New Roman;fontSize=16;" parent="1" edge="1">
                    <mxGeometry width="50" height="50" relative="1" as="geometry">
                        <mxPoint x="590" y="1011.27998046875" as="sourcePoint"/>
                        <mxPoint x="590" y="200" as="targetPoint"/>
                    </mxGeometry>
                </mxCell>
                <mxCell id="100" value="" style="endArrow=none;dashed=1;html=1;dashPattern=1 3;strokeWidth=2;fontFamily=Times New Roman;fontSize=16;" parent="1" edge="1">
                    <mxGeometry width="50" height="50" relative="1" as="geometry">
                        <mxPoint x="68.75" y="520.0000000000002" as="sourcePoint"/>
                        <mxPoint x="748.75" y="520.0000000000002" as="targetPoint"/>
                    </mxGeometry>
                </mxCell>
                <mxCell id="101" value="" style="endArrow=none;dashed=1;html=1;dashPattern=1 3;strokeWidth=2;fontFamily=Times New Roman;fontSize=16;" parent="1" edge="1">
                    <mxGeometry width="50" height="50" relative="1" as="geometry">
                        <mxPoint x="65" y="340.0000000000002" as="sourcePoint"/>
                        <mxPoint x="745" y="340.0000000000002" as="targetPoint"/>
                    </mxGeometry>
                </mxCell>
                <mxCell id="103" style="edgeStyle=none;html=1;exitX=0.5;exitY=1;exitDx=0;exitDy=0;entryX=0.5;entryY=0;entryDx=0;entryDy=0;fontFamily=Times New Roman;fontSize=16;" parent="1" source="81" target="77" edge="1">
                    <mxGeometry relative="1" as="geometry">
                        <mxPoint x="719.9999999999999" y="650" as="targetPoint"/>
                    </mxGeometry>
                </mxCell>
                <mxCell id="104" style="edgeStyle=none;html=1;exitX=0.5;exitY=1;exitDx=0;exitDy=0;entryX=0.5;entryY=0;entryDx=0;entryDy=0;fontFamily=Times New Roman;fontSize=16;" parent="1" source="77" target="72" edge="1">
                    <mxGeometry relative="1" as="geometry">
                        <mxPoint x="658.7499999999999" y="829.9999999999999" as="targetPoint"/>
                    </mxGeometry>
                </mxCell>
                <mxCell id="105" value="&lt;font style=&quot;font-size: 21px;&quot;&gt;&lt;b&gt;software&lt;/b&gt;&lt;/font&gt;" style="text;html=1;align=center;verticalAlign=middle;resizable=0;points=[];autosize=1;strokeColor=none;fillColor=none;fontSize=16;fontFamily=Times New Roman;" parent="1" vertex="1">
                    <mxGeometry x="281.25" y="1030" width="100" height="40" as="geometry"/>
                </mxCell>
                <mxCell id="106" value="&lt;font style=&quot;font-size: 21px;&quot;&gt;&lt;b&gt;hardware&lt;/b&gt;&lt;/font&gt;" style="text;html=1;align=center;verticalAlign=middle;resizable=0;points=[];autosize=1;strokeColor=none;fillColor=none;fontSize=16;fontFamily=Times New Roman;" parent="1" vertex="1">
                    <mxGeometry x="636" y="1030" width="110" height="40" as="geometry"/>
                </mxCell>
                <mxCell id="107" style="edgeStyle=none;html=1;exitX=0;exitY=0.5;exitDx=0;exitDy=0;fontFamily=Times New Roman;fontSize=21;" parent="1" source="81" target="59" edge="1">
                    <mxGeometry relative="1" as="geometry"/>
                </mxCell>
                <mxCell id="108" style="edgeStyle=none;html=1;exitX=0;exitY=0.5;exitDx=0;exitDy=0;entryX=0.997;entryY=0.482;entryDx=0;entryDy=0;entryPerimeter=0;fontFamily=Times New Roman;fontSize=21;" parent="1" source="77" target="42" edge="1">
                    <mxGeometry relative="1" as="geometry"/>
                </mxCell>
            </root>
        </mxGraphModel>
    </diagram>
</mxfile>